<?xml version="1.0" encoding="UTF-8"?><svg xmlns="http://www.w3.org/2000/svg" viewBox="0 0 114.04688 109.86818"><g style="isolation:isolate;"><g id="uuid-70375282-7b5d-428c-aa93-7dfee7a9bd48"><path d="m18.02897,71.54941c-.66812-.92864-.20489-1.81495-.28168-3.66197-.10689-2.57076-1.15053-4.37144-2.53521-6.76056-1.74879-3.01735-2.7717-3.27165-5.9155-7.04225-1.23466-1.48082-3.48355-4.1781-5.35211-7.60564-.96893-1.77734-2.93468-5.45727-3.66197-10.42254-1.07848-7.36292,1.20502-13.19201,2.25352-15.77465,2.91142-7.1713,7.52827-11.34761,8.73239-12.39436C20.12419.18905,30.48173-.006,32.67686.00012c1.59208.00444,16.49442.29809,25.91549,12.67606,6.17429,8.11216,6.54526,16.8831,6.47888,20.28169-.04984,2.55119-.24632,8.87193-3.94366,14.92957-1.44244,2.36327-3.50995,4.8376-5.35211,7.04226-4.44406,5.31853-5.1306,4.98807-6.19719,7.32394-2.2112,4.84264-.32265,8.58923-2.81689,10.14084-.69496.43232-1.18179.35309-3.94366.28169-3.09756-.08008-6.19719.00393-9.29578,0-8.70804-.01104-9.57736,0-9.57746,0-3.13811.03986-5.02902.10538-5.9155-1.12676Z" style="fill:#0089cc;"/><path d="m17.98862,81.07207h29.35266c.32167,0,.58244-.32882.58244-.73444v-4.85729c0-.40562-.26077-.73444-.58244-.73444h-29.35266c-.32167,0-.58244.32882-.58244.73444v4.85729c0,.40562.26077.73444.58244.73444Z" style="fill:#0089cc;"/><path d="m17.98862,89.41166h29.35266c.32167,0,.58244-.32882.58244-.73444v-4.85729c0-.40562-.26077-.73444-.58244-.73444h-29.35266c-.32167,0-.58244.32882-.58244.73444v4.85729c0,.40562.26077.73444.58244.73444Z" style="fill:#0089cc;"/><path d="m28.15848,88.59742h8.63463c2.53147,0,4.58363,2.24197,4.58363,5.00758v3.80971c0,2.76561-2.05216,5.00758-4.58363,5.00758h-8.63463c-2.53147,0-4.58363-2.24197-4.58363-5.00758v-3.80971c0-2.76561,2.05216-5.00758,4.58363-5.00758Z" style="fill:#0089cc;"/><rect x="23.57485" y="83.08548" width="17.80189" height="13.82486" style="fill:#0089cc;"/><polygon points="33.62107 72.67455 33.50367 44.60526 31.45625 44.60526 31.6239 72.73248 33.62107 72.67455" style="fill:#fff;"/><rect x="26.88746" y="43.23329" width="11.30239" height="1.37197" rx=".68598" ry=".68598" style="fill:#fff;"/><path d="m82.08782,109.86809h-.00006c-1.77475.00425-4.22624-.13715-7.05556-.78143-1.82993-.4167-9.22587-2.27526-15.54292-8.57917-8.82145-8.80309-9.31195-20.06087-9.3606-22.59847v-.00007c0-17.65051,14.30856-31.95907,31.95908-31.95907h.00006c17.65051,0,31.95907,14.30856,31.95907,31.95907v.00007c0,17.65051-14.30856,31.95907-31.95907,31.95907Z" style="fill:#fff;"/><rect x="67.59102" y="91.19735" width="34.48877" height="1.79728" rx=".68598" ry=".68598" transform="translate(176.93139 7.26058) rotate(90)" style="fill:#0089cc;"/><rect x="56.53476" y="85.61061" width="45.66224" height="1.79728" rx=".68598" ry=".68598" transform="translate(165.87513 7.14337) rotate(90)" style="fill:#0089cc;"/><rect x="72.70973" y="63.67813" width="7.55479" height="1.9061" rx=".68598" ry=".68598" style="fill:#0089cc;"/><rect x="82.19041" y="71.36335" width="5.28999" height="5.61028" rx="2.64499" ry="2.64499" style="fill:#0089cc;"/><rect x="69.62548" y="61.47665" width="5.28999" height="5.61028" rx="2.64499" ry="2.64499" style="fill:#0089cc;"/><rect x="94.68797" y="67.65313" width="5.28999" height="5.61028" rx="2.64499" ry="2.64499" style="fill:#0089cc;"/><rect x="73.94292" y="90.74273" width="33.57954" height="1.79728" rx=".68598" ry=".68598" transform="translate(182.37406 .90868) rotate(90)" style="fill:#0089cc;"/><path d="m94.82766,71.23779l-4.62923,3.6306c-.39905.31296-.48331.90975-.18822,1.33295h0c.2951.42321.85781.51258,1.25685.19962l4.62923-3.6306c.39905-.31296.48331-.90975.18822-1.33295h0c-.2951-.42321-.85781-.51258-1.25685-.19961Z" style="fill:#0089cc;"/><rect x="62.87903" y="96.74607" width="21.86254" height="1.50762" rx=".50712" ry=".50712" transform="translate(171.31018 23.68957) rotate(90)" style="fill:#0089cc;"/><path d="m70.32559,84.24976l3.93183,2.33283c.33893.20109.38258.63419.0975.96734h0c-.28508.33316-.79095.44022-1.12987.23913l-3.93183-2.33283c-.33893-.20109-.38258-.63419-.0975-.96734h0c.28508-.33316.79095-.44022,1.12987-.23913Z" style="fill:#0089cc;"/><rect x="66.36247" y="81.34315" width="5.28999" height="5.61028" rx="2.64499" ry="2.64499" style="fill:#0089cc;"/><path d="m44.60329,92.09599c.10613,5.00473.21224,10.00944.31837,15.01417l4.62042-5.0959c2.03734.08867,4.07466.17733,6.11199.26598-3.6836-3.39474-7.36719-6.78951-11.05078-10.18425Z" style="fill:#0088cb; mix-blend-mode:color-burn; stroke:#0088cb; stroke-miterlimit:10;"/></g></g></svg>